<?xml version="1.0" encoding="UTF-8" standalone="no"?>
<svg
   viewBox="0 0 2960 289.93656"
   height="289.93655"
   width="2960"
   xml:space="preserve"
   id="svg2"
   version="1.1"
   inkscape:version="1.4 (e7c3feb100, 2024-10-09)"
   sodipodi:docname="Bulgari - Bvlgari.svg"
   xmlns:inkscape="http://www.inkscape.org/namespaces/inkscape"
   xmlns:sodipodi="http://sodipodi.sourceforge.net/DTD/sodipodi-0.dtd"
   xmlns="http://www.w3.org/2000/svg"
   xmlns:svg="http://www.w3.org/2000/svg"
   xmlns:rdf="http://www.w3.org/1999/02/22-rdf-syntax-ns#"
   xmlns:cc="http://creativecommons.org/ns#"
   xmlns:dc="http://purl.org/dc/elements/1.1/"><title
     id="title4201">Bulgari - Bvlgari</title><sodipodi:namedview
     pagecolor="#ffffff"
     bordercolor="#666666"
     borderopacity="1"
     objecttolerance="10"
     gridtolerance="10"
     guidetolerance="10"
     inkscape:pageopacity="0"
     inkscape:pageshadow="2"
     inkscape:window-width="1920"
     inkscape:window-height="1052"
     id="namedview4143"
     showgrid="false"
     fit-margin-top="20"
     fit-margin-right="20"
     fit-margin-bottom="20"
     fit-margin-left="20"
     inkscape:zoom="0.30709459"
     inkscape:cx="1585.8306"
     inkscape:cy="-219.80198"
     inkscape:window-x="0"
     inkscape:window-y="0"
     inkscape:window-maximized="1"
     inkscape:current-layer="svg2"
     inkscape:showpageshadow="2"
     inkscape:pagecheckerboard="0"
     inkscape:deskcolor="#d1d1d1" /><metadata
     id="metadata8"><rdf:RDF><cc:Work
         rdf:about=""><dc:format>image/svg+xml</dc:format><dc:type
           rdf:resource="http://purl.org/dc/dcmitype/StillImage" /><dc:title>Bulgari - Bvlgari</dc:title></cc:Work></rdf:RDF></metadata><defs
     id="defs6" /><path
     style="fill:#f9f9f9;fill-opacity:1;fill-rule:evenodd;stroke:none"
     d="m 1519.7031,0.00713565 c -57.2108,-0.3797 -103.5242,14.39872035 -140.8837,43.19395035 -37.7502,28.81107 -56.4245,63.828024 -56.4245,107.410124 0,35.80257 18.6741,68.50102 49.0262,94.18731 36.5874,31.13055 87.1735,45.13804 149.4392,45.13804 26.0692,0 52.937,-4.28387 73.1728,-9.72812 29.966,-7.781 69.6568,-25.6874 81.7128,-52.15055 l -0.7714,-39.29809 c -0.7753,-27.24313 1.172,-28.41537 29.1919,-28.79851 v -9.35008 h -105.466 v 9.35008 c 10.9011,0 18.2892,-0.38843 24.9027,3.88813 6.2336,4.6721 4.6673,25.68274 4.6673,33.85932 l -0.378,23.73774 c -8.955,17.12524 -29.5893,26.46122 -44.3666,32.30098 -13.6224,5.45053 -38.5403,11.28306 -61.8787,11.67213 -38.9226,0.38922 -69.2775,-10.50969 -94.573,-26.46098 -25.6863,-16.74234 -50.5922,-51.36461 -50.5922,-94.56536 0,-41.64236 26.4696,-75.897494 57.6048,-97.304034 20.2358,-14.00211 54.4754,-26.06978 88.3319,-25.67412 29.194,0.39554 56.4416,7.3881 76.2818,18.68472 22.5774,12.45155 46.7061,37.75025 55.6453,56.42446 l 8.9489,-3.50243 -14.3954,-61.09948 c -17.8942,-10.90108 -40.0884,-18.69068 -61.0995,-23.7377803 -22.957,-5.45844 -46.3087,-7.78179005 -68.0966,-8.17745005 z M 151.60695,6.4642557 c -39.78775,0.14378 -79.421651,0.72879 -151.221222,0.432 L 0,15.852896 c 9.727883,0 13.236245,-0.39349 19.070445,4.27387 5.451004,4.68316 6.225668,9.72741 6.225668,26.86217 V 230.27969 c 0,15.56681 1.166798,31.52518 -2.337519,35.80335 -5.055461,5.83972 -8.561215,7.00825 -21.014518,6.61911 v 9.33468 H 149.8326 c 40.47471,0 107.02004,-1.16336 134.25686,-22.56519 10.51183,-5.83502 29.57348,-23.7362 29.18426,-54.09463 0,-36.97019 -15.94997,-48.26191 -30.34917,-56.43217 -12.84394,-7.00102 -33.07922,-12.44583 -56.81788,-16.33949 19.06655,-6.61183 23.34598,-8.56769 35.40992,-17.90553 12.45315,-8.95501 20.63651,-26.850204 20.63651,-44.752294 0,-46.70523 -50.60075,-61.4832103 -89.51229,-63.4292703 -14.4973,-0.0987 -27.77127,-0.10179 -41.03386,-0.054 z m 2807.62165,0.432 -96.5172,0.38574 v 8.1774503 c 15.9481,0.77524 20.6368,1.17062 23.7378,12.45132 1.5504,4.2877 1.1726,14.00358 1.1726,27.62595 V 233.38866 c 0,32.29813 2.7356,39.69923 -22.9586,39.69923 v 8.94894 H 2960 l -0.378,-8.94894 c -26.0739,0 -24.9181,-10.12559 -24.9181,-39.69923 V 55.536716 c 0,-31.91207 -0.774,-40.07727 24.5247,-40.07727 z M 432.74945,7.2896957 V 17.403526 c 9.3442,0 13.24054,0.39325 18.68472,3.51013 6.23056,3.89208 14.01413,21.78758 23.352,40.07723 l 116.7525,221.045944 h 39.30579 c 24.12787,-47.86495 63.03942,-125.69582 93.00701,-184.463394 20.23421,-38.90997 35.03072,-70.04257 40.86412,-77.43123 3.50448,-4.28762 13.23355,-2.73868 19.45617,-2.73868 V 7.2896957 l -81.72055,0.38575 v 9.7280803 c 0.7784,0 23.73712,-3.10518 21.40026,11.67217 C 721.90545,40.751976 630.84355,211.214 619.55803,238.45713 L 528.87311,67.617736 c -6.61342,-12.46739 -12.06139,-21.8033 -14.78111,-29.19199 -7.39818,-17.51442 3.89543,-21.02222 19.46387,-21.02222 V 7.2896957 Z m 2077.18955,0.26232 c -5.8148,-0.0459 -12.0039,-0.0245 -18.5767,0.008 -8.7636,0.043 -18.2138,0.11573 -28.3356,0.11573 h -124.5134 v 8.5631903 c 17.119,0 24.1312,5.06242 24.1312,24.90264 v 20.6288 148.659994 47.47553 c 0,14.78367 -10.9043,14.3911 -24.1312,14.00196 v 10.12927 h 97.2886 v -10.12927 c -15.9639,0 -25.3016,-1.54207 -25.6973,-20.61336 v -80.9491 c 10.5055,0.77366 19.8532,0 36.1968,0 5.8381,0 36.9601,0.39064 46.3107,0 35.4086,0 51.7545,42.02834 70.8353,71.60675 15.9481,24.90628 8.9426,40.08498 110.9125,40.08498 0,-2.33524 -0.7715,-7.40055 -0.7715,-9.73583 -43.5883,0.38906 -51.772,-25.68961 -70.4572,-59.1554 -17.4987,-30.35049 -22.1863,-50.19667 -67.3252,-55.25953 68.4916,-12.83607 86.4033,-43.96943 86.4033,-79.390754 -0.3956,-35.78835 -26.8474,-57.98838 -70.0561,-67.71863 -10.724,-2.4028703 -24.7695,-3.0868603 -42.2142,-3.2246703 z m -1566.60002,0.11569 v 8.5631903 c 13.62076,0 17.51434,1.16841 21.408,6.62684 3.88734,5.0471 3.88813,13.60982 3.88813,28.79851 V 183.5679 251.67994 c 0,17.90525 -7.00169,21.01119 -23.73775,21.40025 v 8.95664 H 1189.681 l 28.4051,-56.81791 -8.9412,-3.51013 c -9.3458,15.17918 -30.7483,29.97115 -64.6096,29.97115 h -70.8275 -57.9828 V 39.582936 c 0,-12.8471 2.3376,-16.72504 5.4465,-19.84188 4.6721,-3.892 7.0066,-3.1145 19.0705,-3.51016 V 7.6677057 Z m 1037.13292,0.008 L 1867.2218,223.2751 c -10.11,19.46209 -14.0018,26.07555 -18.6692,35.0242 -5.4585,9.33788 -8.5782,15.57235 -27.2634,15.96149 v 7.7763 h 84.4593 l 0.3934,-8.94123 c -15.1887,0.38906 -21.7838,-0.78844 -22.1794,-14.41081 0,-4.28292 3.8899,-11.27276 9.7281,-21.7783 l 15.946,-28.02706 h 163.4488 l 19.4717,33.07242 c 12.8471,21.40816 9.3253,29.1954 -13.6317,30.3646 v 9.72038 h 101.1844 v -10.50728 c -24.1279,0 -22.96,-6.60243 -44.3665,-45.90948 L 2016.283,7.6757057 Z m 480.5644,19.7956203 c 29.9138,-0.17972 60.2314,1.31771 79.4448,10.55353 16.3436,7.78419 29.9634,16.73613 29.9634,43.98084 0,38.527034 -23.741,48.647694 -41.651,55.259534 -31.5165,8.17026 -83.2802,5.44307 -118.6889,5.83221 V 28.289066 c 15.1769,0 32.9835,-0.70983 50.9317,-0.81774 z m -2305.8575,2.25265 c 23.84388,-0.0316 47.19094,0.91617 60.03487,9.08007 16.72972,10.90107 20.62108,18.68823 20.62108,35.03191 0,10.11 -8.16575,27.640884 -16.72521,34.252724 -20.24052,16.34683 -56.43269,17.11868 -83.28662,17.11868 H 71.606743 V 29.855106 h 59.926867 c 7.68691,0 15.69724,-0.12007 23.64519,-0.13113 z m 1834.6277,19.2093 68.8912,129.196124 H 1924.4332 Z M 153.09587,149.616 c 39.56357,-0.10739 67.6524,1.41773 87.4062,16.06178 10.5071,7.78103 20.62879,21.40199 20.62879,37.75514 0,45.14049 -56.42352,48.25472 -112.07743,48.25472 H 71.606743 V 149.72403 c 21.013086,0 42.811507,0.38906 63.830447,0 6.12927,-0.049 12.00674,-0.093 17.65868,-0.10803 z"
     id="path4191"
     inkscape:connector-curvature="0" /></svg>
